<?xml version="1.0" encoding="UTF-8" standalone="no"?>
<!-- Created with Inkscape (http://www.inkscape.org/) -->

<svg
   version="1.1"
   id="svg1"
   viewBox="0 0 1496 1496"
   sodipodi:docname="6328.eps"
   xmlns:inkscape="http://www.inkscape.org/namespaces/inkscape"
   xmlns:sodipodi="http://sodipodi.sourceforge.net/DTD/sodipodi-0.dtd"
   xmlns="http://www.w3.org/2000/svg"
   xmlns:svg="http://www.w3.org/2000/svg">
  <defs
     id="defs1" />
  <sodipodi:namedview
     id="namedview1"
     pagecolor="#ffffff"
     bordercolor="#000000"
     borderopacity="0.25"
     inkscape:showpageshadow="2"
     inkscape:pageopacity="0.0"
     inkscape:pagecheckerboard="0"
     inkscape:deskcolor="#d1d1d1">
    <inkscape:page
       x="0"
       y="0"
       inkscape:label="1"
       id="page1"
       width="1496"
       height="1496"
       margin="0"
       bleed="0" />
  </sodipodi:namedview>
  <g
     id="g1"
     inkscape:groupmode="layer"
     inkscape:label="1">
    <g
       id="group-R5">
      <path
         id="path3"
         d="m 7795.64,4599 -1479.65,854.28 c 11.16,50.48 17.23,102.88 17.23,156.72 0,53.84 -6.07,106.24 -17.23,156.72 L 7795.64,6621 c 142.18,-307.59 222.06,-649.88 222.06,-1011 0,-361.12 -79.88,-703.4 -222.06,-1011 z M 5827.28,3207.52 v 1712.52 c 102.1,32.13 194.42,86.3 271.42,156.93 L 7578.44,4222.64 C 7181.92,3659.55 6551.02,3273.78 5827.28,3207.52 Z M 5610,5233.67 c -207.84,0 -376.33,168.49 -376.33,376.33 0,207.84 168.49,376.33 376.33,376.33 207.84,0 376.33,-168.49 376.33,-376.33 0,-207.84 -168.49,-376.33 -376.33,-376.33 z M 5392.72,3206.7 c -726.34,63.23 -1360.15,448.04 -1758.83,1011.51 l 1487.41,858.76 c 77,-70.63 169.32,-124.8 271.42,-156.93 z M 3415.77,4594.05 c -143.61,308.85 -224.3,652.9 -224.3,1015.95 0,363.05 80.69,707.09 224.3,1015.96 l 1488.24,-859.24 c -11.16,-50.48 -17.23,-102.88 -17.23,-156.72 0,-53.84 6.07,-106.24 17.23,-156.72 z m 974.66,3101.09 c 299.08,174.54 639.12,286.55 1002.29,318.16 V 6999.82 6299.95 c -102.1,-32.12 -194.42,-86.29 -271.42,-156.92 l -607.99,351.03 -879.42,507.74 c 199.34,281.73 457.46,518.8 756.54,693.34 z m 1436.85,317.34 c 723.74,-66.26 1354.64,-452.03 1751.16,-1015.12 L 6098.7,6143.03 c -77,70.63 -169.32,124.8 -271.42,156.92 z M 8860,5447.35 v 325.31 l -373.61,123.93 c -5.99,60.97 -13.98,121.35 -23.69,181.15 l 328.66,216.31 -84.2,314.23 -392.09,22.95 c -21.64,57.41 -44.87,114.03 -69.99,169.63 l 260.83,293.28 -162.65,281.72 -384.48,-79.26 c -35.72,49.77 -72.97,98.36 -111.7,145.7 l 176.03,350.78 -230.02,230.03 -349.98,-175.63 c -47.48,39.06 -96.3,76.55 -146.24,112.57 l 78.99,383.21 -281.72,162.65 -291.13,-258.92 c -56.36,25.66 -113.75,49.43 -171.97,71.51 l -22.76,388.66 -314.23,84.2 -213.63,-324.59 c -61.23,10.13 -123.06,18.48 -185.52,24.7 L 5772.65,8860 h -325.3 l -121.93,-367.54 c -62.91,-6.02 -125.22,-14.09 -186.91,-24.07 l -212.56,322.97 -314.23,-84.2 -22.51,-384.45 c -59.57,-22.31 -118.29,-46.36 -175.93,-72.41 l -287.42,255.61 -281.72,-162.65 77.58,-376.34 c -51.8,-37.05 -102.32,-75.78 -151.5,-116.09 l -343.31,172.28 -230.02,-230.03 171.87,-342.5 c -40.64,-49.31 -79.59,-100.07 -116.95,-152.04 l -375.07,77.32 -162.65,-281.72 253.71,-285.27 c -26.6,-58.4 -51.19,-117.89 -73.95,-178.29 l -381.01,-22.3 -84.2,-314.23 318.89,-209.88 c -10.39,-63.11 -18.83,-126.87 -25.08,-191.29 L 2360,5772.66 v -325.31 l 362.45,-120.24 c 6.25,-64.41 14.69,-128.17 25.08,-191.28 l -318.89,-209.88 84.2,-314.22 381.01,-22.32 c 22.76,-60.39 47.35,-119.88 73.95,-178.27 l -253.71,-285.28 162.65,-281.73 375.07,77.33 c 37.36,-51.97 76.31,-102.73 116.95,-152.04 l -171.87,-342.5 230.02,-230.03 343.31,172.28 c 49.18,-40.31 99.7,-79.03 151.5,-116.09 l -77.58,-376.33 281.72,-162.66 287.42,255.62 c 57.64,-26.05 116.36,-50.11 175.93,-72.43 l 22.51,-384.44 314.23,-84.2 212.56,322.97 c 61.69,-9.99 124,-18.06 186.91,-24.07 L 5447.35,2360 h 325.3 l 122.25,368.52 c 62.46,6.22 124.29,14.58 185.52,24.71 l 213.63,-324.59 314.23,84.2 22.76,388.66 c 58.22,22.08 115.61,45.85 171.97,71.51 l 291.13,-258.92 281.72,162.66 -78.99,383.2 c 49.94,36.03 98.76,73.51 146.24,112.57 l 349.98,-175.63 230.02,230.03 -176.03,350.78 c 38.73,47.34 75.98,95.93 111.69,145.7 l 384.49,-79.27 162.65,281.73 -260.83,293.28 c 25.12,55.6 48.35,112.22 69.99,169.62 l 392.09,22.97 84.2,314.22 -328.66,216.31 c 9.71,59.8 17.7,120.18 23.69,181.15 L 8860,5447.35"
         style="fill:#003957;fill-opacity:1;fill-rule:nonzero;stroke:#003957;stroke-width:20;stroke-linejoin:round"
         transform="matrix(0.13333333,0,0,-0.13333333,0,1496)" />
      <path
         id="path4"
         d="m 6098.7,6143.03 c -77,70.63 -169.32,124.8 -271.42,156.92 v 1712.53 c 723.74,-66.26 1354.64,-452.03 1751.16,-1015.12 z M 8017.7,5610 c 0,-361.12 -79.89,-703.4 -222.06,-1011 l -1479.65,854.28 c 11.16,50.48 17.22,102.88 17.22,156.72 0,53.84 -6.06,106.24 -17.22,156.72 L 7795.64,6621 C 7937.81,6313.41 8017.7,5971.12 8017.7,5610 Z M 5827.28,3207.52 v 1712.52 c 102.1,32.13 194.42,86.3 271.42,156.93 L 7578.44,4222.64 C 7181.92,3659.55 6551.02,3273.78 5827.28,3207.52 Z M 5233.67,5610 c 0,207.84 168.49,376.33 376.33,376.33 207.84,0 376.33,-168.49 376.33,-376.33 0,-207.84 -168.49,-376.33 -376.33,-376.33 -207.84,0 -376.33,168.49 -376.33,376.33 z m 159.05,-2403.31 c -726.34,63.24 -1360.15,448.05 -1758.83,1011.52 l 1487.41,858.76 c 77,-70.63 169.32,-124.8 271.42,-156.93 z M 3191.47,5610 c 0,363.05 80.69,707.09 224.3,1015.96 l 1488.24,-859.24 c -11.16,-50.48 -17.23,-102.88 -17.23,-156.72 0,-53.84 6.07,-106.24 17.23,-156.72 L 3415.77,4594.05 c -143.61,308.85 -224.3,652.9 -224.3,1015.95 z m 1198.96,2085.14 c 299.08,174.54 639.12,286.55 1002.29,318.16 V 6999.82 6299.95 c -102.1,-32.12 -194.42,-86.29 -271.42,-156.92 l -608,351.03 -879.41,507.74 c 199.34,281.73 457.46,518.8 756.54,693.34 z M 5610,8221.92 c -1442.53,0 -2611.93,-1169.4 -2611.93,-2611.92 0,-1442.53 1169.4,-2611.93 2611.93,-2611.93 1442.53,0 2611.92,1169.4 2611.92,2611.93 0,1442.52 -1169.39,2611.92 -2611.92,2611.92"
         style="fill:#003957;fill-opacity:1;fill-rule:nonzero;stroke:#003957;stroke-width:20;stroke-linejoin:round"
         transform="matrix(0.13333333,0,0,-0.13333333,0,1496)" />
      <path
         id="path5"
         d="m 7795.64,4599 -499.06,288.14 c -126.65,-99.79 -255.01,-192.95 -384.47,-279.8 l 666.33,-384.7 C 7181.92,3659.55 6551.02,3273.78 5827.28,3207.52 v 812.75 c -146.19,-62.56 -291.37,-118.87 -434.56,-169.4 v -644.18 c -387.54,33.74 -748.71,159.08 -1061.92,354.2 -444.63,-88.34 -833.83,-126.51 -1126.05,-141.83 l 222.16,-222.17 343.31,172.28 c 49.18,-40.31 99.7,-79.03 151.5,-116.09 l -77.58,-376.33 281.72,-162.66 287.42,255.62 c 57.64,-26.05 116.36,-50.11 175.93,-72.43 l 22.51,-384.44 314.23,-84.19 212.56,322.96 c 61.69,-9.99 124,-18.05 186.91,-24.07 L 5447.35,2360 h 325.3 l 122.25,368.53 c 62.46,6.21 124.29,14.57 185.52,24.7 l 213.63,-324.58 314.23,84.19 22.76,388.66 c 58.22,22.08 115.61,45.85 171.97,71.51 l 291.13,-258.92 281.72,162.66 -78.99,383.2 c 49.94,36.03 98.76,73.51 146.24,112.57 l 349.98,-175.63 230.02,230.03 -176.03,350.78 c 38.73,47.34 75.98,95.93 111.69,145.7 l 384.49,-79.27 162.65,281.73 -260.83,293.28 c 25.12,55.6 48.35,112.22 69.99,169.63 l 392.09,22.96 84.2,314.22 -328.66,216.31 c 9.71,59.8 17.7,120.18 23.69,181.15 L 8860,5447.35 v 325.31 l -373.61,123.93 c -5.99,60.97 -13.98,121.35 -23.69,181.15 l 328.66,216.31 -56.81,212.03 c -219.86,-356.14 -461.4,-671.55 -717.61,-950.79 -7.64,-340.97 -86.32,-664.28 -221.3,-956.29"
         style="fill:#003957;fill-opacity:1;fill-rule:nonzero;stroke:#003957;stroke-width:20;stroke-linejoin:round"
         transform="matrix(0.13333333,0,0,-0.13333333,0,1496)" />
      <path
         id="path6"
         d="m 7795.64,4599 -499.06,288.14 c -126.65,-99.79 -255.01,-192.95 -384.47,-279.8 l 666.33,-384.7 C 7181.92,3659.55 6551.02,3273.78 5827.28,3207.52 v 812.75 c -146.19,-62.56 -291.37,-118.87 -434.56,-169.4 v -644.18 c -387.54,33.74 -748.71,159.08 -1061.92,354.2 -94.38,-18.75 -186.32,-35.29 -275.31,-49.78 434.37,-322.24 972.11,-513.04 1554.51,-513.04 1442.53,0 2611.92,1169.4 2611.92,2611.93 0,58.14 -2.57,115.64 -6.31,172.84 -65.14,-78.39 -131.4,-154.23 -198.67,-227.56 -7.64,-340.96 -86.33,-664.27 -221.3,-956.28"
         style="fill:#003957;fill-opacity:1;fill-rule:nonzero;stroke:#003957;stroke-width:20;stroke-linejoin:round"
         transform="matrix(0.13333333,0,0,-0.13333333,0,1496)" />
      <path
         id="path7"
         d="m 5610,5112.19 c -274.93,0 -497.81,222.88 -497.81,497.81 0,274.94 222.88,497.81 497.81,497.81 274.93,0 497.81,-222.87 497.81,-497.81 0,-274.93 -222.88,-497.81 -497.81,-497.81 z m 0,1073.85 c -318.14,0 -576.04,-257.9 -576.04,-576.04 0,-318.15 257.9,-576.05 576.04,-576.05 318.14,0 576.04,257.9 576.04,576.05 0,318.14 -257.9,576.04 -576.04,576.04"
         style="fill:#003957;fill-opacity:1;fill-rule:nonzero;stroke:#003957;stroke-width:20;stroke-linejoin:round"
         transform="matrix(0.13333333,0,0,-0.13333333,0,1496)" />
      <circle
         cx="748"
         cy="748"
         r="76.8"
         style="fill:#003957;fill-opacity:1;stroke:none" />
    </g>
  </g>
</svg>
